<svg xmlns="http://www.w3.org/2000/svg" width="300" height="150" viewBox="0 0 300 150" role="img" aria-label="쫑 스튜디오 JJONG Studio logo">
  <rect width="300" height="150" fill="#ffffff"/>
  <g transform="translate(24 30)" fill="none" stroke-linecap="round" stroke-linejoin="round">
    <path d="M12 58c4-20 19-34 38-37" stroke="#00a6a0" stroke-width="8"/>
    <path d="M36 18v58" stroke="#00a6a0" stroke-width="9"/>
    <path d="M54 26v50" stroke="#00a6a0" stroke-width="9"/>
    <path d="M30 72l15 15 22-24" stroke="#f2b53d" stroke-width="7"/>
    <path d="M16 70h12l6-10 8 21 9-43 8 32h12" stroke="#1f262d" stroke-width="4"/>
    <path d="M26 14l7-7m17 0l-7 7" stroke="#f2b53d" stroke-width="5"/>
    <polygon points="45,39 56,50 45,61 34,50" fill="#ffffff" stroke="#00a6a0" stroke-width="5"/>
  </g>
  <text x="112" y="70" fill="#1f262d" font-family="Malgun Gothic, Arial, sans-serif" font-size="31" font-weight="700">쫑 스튜디오</text>
  <rect x="114" y="82" width="74" height="4" rx="2" fill="#f2b53d"/>
  <text x="114" y="103" fill="#00a6a0" font-family="Segoe UI, Arial, sans-serif" font-size="15" font-weight="700">JJONG Studio</text>
</svg>
